<svg xmlns="http://www.w3.org/2000/svg" height="24" viewBox="0 -960 960 960" width="24"><path d="M157.826-84.652q-46.929 0-80.052-33.122-33.122-33.123-33.122-80.052V-626.5q0-46.929 33.122-80.052 33.123-33.122 80.052-33.122h130.826v-80q0-46.929 33.122-80.052 33.123-33.122 80.052-33.122h156.348q46.929 0 80.052 33.122 33.122 33.123 33.122 80.052v80h130.826q46.929 0 80.052 33.122 33.122 33.123 33.122 80.052v428.674q0 46.929-33.122 80.052-33.123 33.122-80.052 33.122H157.826Zm0-113.174h644.348V-626.5H157.826v428.674Zm244-541.848h156.348v-80H401.826v80Zm-244 541.848V-626.5v428.674Z"/></svg>